<?xml version="1.0" encoding="UTF-8"?>
<svg xmlns="http://www.w3.org/2000/svg" width="512" height="512" viewBox="0 0 512 512" role="img" aria-label="SafeCity logo">
  <!-- Red background -->
  <rect width="100%" height="100%" fill="#e53935"/>
  <!-- White shield -->
  <g transform="translate(86,56)">
    <path d="M140 8c-6 0-12 2-17 6L41 70C22 86 14 110 20 133c11 41 34 122 120 184 86-62 109-143 120-184 6-23-2-47-21-63L157 14c-5-4-11-6-17-6z"
          fill="#fff"/>
    <!-- City skyline inside the shield -->
    <g transform="translate(44,48) scale(0.7)">
      <rect x="12" y="60" width="18" height="50" rx="2" ry="2" fill="#e53935"/>
      <rect x="36" y="36" width="24" height="74" rx="2" ry="2" fill="#e53935"/>
      <rect x="64" y="48" width="22" height="62" rx="2" ry="2" fill="#e53935"/>
      <rect x="92" y="28" width="28" height="82" rx="2" ry="2" fill="#e53935"/>
      <rect x="124" y="52" width="18" height="58" rx="2" ry="2" fill="#e53935"/>
      <!-- windows -->
      <g fill="#fff" opacity="0.9">
        <rect x="38" y="44" width="6" height="8" rx="1"/>
        <rect x="52" y="44" width="6" height="8" rx="1"/>
        <rect x="70" y="56" width="6" height="8" rx="1"/>
        <rect x="84" y="56" width="6" height="8" rx="1"/>
        <rect x="104" y="36" width="6" height="8" rx="1"/>
        <rect x="118" y="36" width="6" height="8" rx="1"/>
      </g>
    </g>
    <!-- Thin white stroke around shield for contrast -->
    <path d="M140 8c-6 0-12 2-17 6L41 70C22 86 14 110 20 133c11 41 34 122 120 184 86-62 109-143 120-184 6-23-2-47-21-63L157 14c-5-4-11-6-17-6z"
          fill="none" stroke="#ffffff" stroke-width="6" opacity="0.9"/>
  </g>
  <!-- Text label (optional) -->
  <text x="50%" y="470" font-family="Poppins, Arial, sans-serif" font-size="36" fill="#ffffff" text-anchor="middle" font-weight="700">SafeCity</text>
</svg>
